HIERARCHY
ROOT Hips
{
	OFFSET -14.64140 90.27770 -84.91600
	CHANNELS 6 Xposition Yposition Zposition Zrotation Xrotation Yrotation
	JOINT Spine
	{
		OFFSET 0.00000 13.20850 -1.60436
		CHANNELS 3 Zrotation Xrotation Yrotation
		JOINT Spine1
		{
			OFFSET 0.00000 8.61716 0.00000
			CHANNELS 3 Zrotation Xrotation Yrotation
			JOINT Spine2
			{
				OFFSET 0.00000 8.61717 0.00000
				CHANNELS 3 Zrotation Xrotation Yrotation
				JOINT Spine3
				{
					OFFSET 0.00000 8.61717 0.00000
					CHANNELS 3 Zrotation Xrotation Yrotation
					JOINT Neck
					{
						OFFSET 0.00000 11.07920 1.10792
						CHANNELS 3 Zrotation Xrotation Yrotation
						JOINT Neck1
						{
							OFFSET 0.00000 7.08032 0.00000
							CHANNELS 3 Zrotation Xrotation Yrotation
							JOINT Head
							{
								OFFSET 0.00000 7.08031 0.00000
								CHANNELS 3 Zrotation Xrotation Yrotation
								End site
								{
									OFFSET 0.00000 0.00000 0.00000
								}
							}
						}
					}
					JOINT RightShoulder
					{
						OFFSET -0.01000 7.91373 5.19711
						CHANNELS 3 Zrotation Xrotation Yrotation
						JOINT RightArm
						{
							OFFSET -18.41580 0.00000 0.00000
							CHANNELS 3 Zrotation Xrotation Yrotation
							JOINT RightForeArm
							{
								OFFSET -29.11090 0.00000 0.00000
								CHANNELS 3 Zrotation Xrotation Yrotation
								JOINT RightHand
								{
									OFFSET -24.65040 0.00000 0.00000
									CHANNELS 3 Zrotation Xrotation Yrotation
									JOINT RightHandThumb1
									{
										OFFSET -5.35114 -0.85590 3.97906
										CHANNELS 3 Zrotation Xrotation Yrotation
										JOINT RightHandThumb2
										{
											OFFSET -4.52789 0.00000 0.00000
											CHANNELS 3 Zrotation Xrotation Yrotation
											JOINT RightHandThumb3
											{
												OFFSET -2.46976 0.00000 0.00000
												CHANNELS 3 Zrotation Xrotation Yrotation
												End site
												{
													OFFSET 0.00000 0.00000 0.00000
												}
											}
										}
									}
									JOINT RightHandIndex1
									{
										OFFSET -14.26970 0.00000 2.88139
										CHANNELS 3 Zrotation Xrotation Yrotation
										JOINT RightHandIndex2
										{
											OFFSET -5.48836 0.00000 0.00000
											CHANNELS 3 Zrotation Xrotation Yrotation
											JOINT RightHandIndex3
											{
												OFFSET -3.01859 0.00000 0.00000
												CHANNELS 3 Zrotation Xrotation Yrotation
												End site
												{
													OFFSET 0.00000 0.00000 0.00000
												}
											}
										}
									}
									JOINT RightHandMiddle1
									{
										OFFSET -14.26970 0.00000 -0.09147
										CHANNELS 3 Zrotation Xrotation Yrotation
										JOINT RightHandMiddle2
										{
											OFFSET -6.17441 0.00000 0.00000
											CHANNELS 3 Zrotation Xrotation Yrotation
											JOINT RightHandMiddle3
											{
												OFFSET -3.56743 0.00000 0.00000
												CHANNELS 3 Zrotation Xrotation Yrotation
												End site
												{
													OFFSET 0.00000 0.00000 0.00000
												}
											}
										}
									}
									JOINT RightHandRing1
									{
										OFFSET -12.69180 0.00000 -3.06433
										CHANNELS 3 Zrotation Xrotation Yrotation
										JOINT RightHandRing2
										{
											OFFSET -5.62556 0.00000 0.00000
											CHANNELS 3 Zrotation Xrotation Yrotation
											JOINT RightHandRing3
											{
												OFFSET -3.56744 0.00000 0.00000
												CHANNELS 3 Zrotation Xrotation Yrotation
												End site
												{
													OFFSET 0.00000 0.00000 0.00000
												}
											}
										}
									}
									JOINT RightHandPinky1
									{
										OFFSET -11.11390 0.00000 -6.03719
										CHANNELS 3 Zrotation Xrotation Yrotation
										JOINT RightHandPinky2
										{
											OFFSET -4.52789 0.00000 0.00000
											CHANNELS 3 Zrotation Xrotation Yrotation
											JOINT RightHandPinky3
											{
												OFFSET -2.46976 0.00000 0.00000
												CHANNELS 3 Zrotation Xrotation Yrotation
												End site
												{
													OFFSET 0.00000 0.00000 0.00000
												}
											}
										}
									}
								}
							}
						}
					}
					JOINT LeftShoulder
					{
						OFFSET 0.01000 7.91373 5.19711
						CHANNELS 3 Zrotation Xrotation Yrotation
						JOINT LeftArm
						{
							OFFSET 18.41580 0.00000 0.00000
							CHANNELS 3 Zrotation Xrotation Yrotation
							JOINT LeftForeArm
							{
								OFFSET 29.11090 0.00000 0.00000
								CHANNELS 3 Zrotation Xrotation Yrotation
								JOINT LeftHand
								{
									OFFSET 24.65040 0.00000 0.00000
									CHANNELS 3 Zrotation Xrotation Yrotation
									JOINT LeftHandThumb1
									{
										OFFSET 5.35114 -0.85590 3.97906
										CHANNELS 3 Zrotation Xrotation Yrotation
										JOINT LeftHandThumb2
										{
											OFFSET 4.52789 0.00000 0.00000
											CHANNELS 3 Zrotation Xrotation Yrotation
											JOINT LeftHandThumb3
											{
												OFFSET 2.46977 0.00000 0.00000
												CHANNELS 3 Zrotation Xrotation Yrotation
												End site
												{
													OFFSET 0.00000 0.00000 0.00000
												}
											}
										}
									}
									JOINT LeftHandIndex1
									{
										OFFSET 14.26970 0.00000 2.88139
										CHANNELS 3 Zrotation Xrotation Yrotation
										JOINT LeftHandIndex2
										{
											OFFSET 5.48836 0.00000 0.00000
											CHANNELS 3 Zrotation Xrotation Yrotation
											JOINT LeftHandIndex3
											{
												OFFSET 3.01859 0.00000 0.00000
												CHANNELS 3 Zrotation Xrotation Yrotation
												End site
												{
													OFFSET 0.00000 0.00000 0.00000
												}
											}
										}
									}
									JOINT LeftHandMiddle1
									{
										OFFSET 14.26970 0.00000 -0.09147
										CHANNELS 3 Zrotation Xrotation Yrotation
										JOINT LeftHandMiddle2
										{
											OFFSET 6.17440 0.00000 0.00000
											CHANNELS 3 Zrotation Xrotation Yrotation
											JOINT LeftHandMiddle3
											{
												OFFSET 3.56744 0.00000 0.00000
												CHANNELS 3 Zrotation Xrotation Yrotation
												End site
												{
													OFFSET 0.00000 0.00000 0.00000
												}
											}
										}
									}
									JOINT LeftHandRing1
									{
										OFFSET 12.69180 0.00000 -3.06433
										CHANNELS 3 Zrotation Xrotation Yrotation
										JOINT LeftHandRing2
										{
											OFFSET 5.62556 0.00000 0.00000
											CHANNELS 3 Zrotation Xrotation Yrotation
											JOINT LeftHandRing3
											{
												OFFSET 3.56744 0.00000 0.00000
												CHANNELS 3 Zrotation Xrotation Yrotation
												End site
												{
													OFFSET 0.00000 0.00000 0.00000
												}
											}
										}
									}
									JOINT LeftHandPinky1
									{
										OFFSET 11.11390 0.00000 -6.03719
										CHANNELS 3 Zrotation Xrotation Yrotation
										JOINT LeftHandPinky2
										{
											OFFSET 4.52789 0.00000 0.00000
											CHANNELS 3 Zrotation Xrotation Yrotation
											JOINT LeftHandPinky3
											{
												OFFSET 2.46976 0.00000 0.00000
												CHANNELS 3 Zrotation Xrotation Yrotation
												End site
												{
													OFFSET 0.00000 0.00000 0.00000
												}
											}
										}
									}
								}
							}
						}
					}
					JOINT pCube4
					{
						OFFSET 0.00000 10.91090 1.10792
						CHANNELS 3 Zrotation Xrotation Yrotation
						End site
						{
							OFFSET 0.00000 0.00000 0.00000
						}
					}
				}
			}
		}
	}
	JOINT RightUpLeg
	{
		OFFSET -9.98441 0.00000 0.00000
		CHANNELS 3 Zrotation Xrotation Yrotation
		JOINT RightLeg
		{
			OFFSET 0.00000 -42.11790 0.00000
			CHANNELS 3 Zrotation Xrotation Yrotation
			JOINT RightFoot
			{
				OFFSET 0.00000 -45.00020 -0.00001
				CHANNELS 3 Zrotation Xrotation Yrotation
				JOINT RightForeFoot
				{
					OFFSET 0.00000 -3.74820 0.00000
					CHANNELS 3 Zrotation Xrotation Yrotation
					JOINT RightToeBase
					{
						OFFSET 0.00000 0.06325 14.43120
						CHANNELS 3 Zrotation Xrotation Yrotation
						End site
						{
							OFFSET 0.00000 0.00000 0.00000
						}
					}
				}
			}
		}
	}
	JOINT LeftUpLeg
	{
		OFFSET 9.98441 0.00000 0.00000
		CHANNELS 3 Zrotation Xrotation Yrotation
		JOINT LeftLeg
		{
			OFFSET 0.00000 -42.11800 0.00000
			CHANNELS 3 Zrotation Xrotation Yrotation
			JOINT LeftFoot
			{
				OFFSET 0.00000 -45.00070 0.00000
				CHANNELS 3 Zrotation Xrotation Yrotation
				JOINT LeftForeFoot
				{
					OFFSET 0.00000 -3.74824 0.00000
					CHANNELS 3 Zrotation Xrotation Yrotation
					JOINT LeftToeBase
					{
						OFFSET 0.00000 0.06325 14.43110
						CHANNELS 3 Zrotation Xrotation Yrotation
						End site
						{
							OFFSET 0.00000 0.00000 0.00000
						}
					}
				}
			}
		}
	}
}
MOTION
Frames: 4
Frame Time: 0.050000
0.008987336364886333 0.027647825264873083 -0.04592843647393557 -0.015322291031833898 -0.006895271438772079 0.012631052487353104 -1.705253267738915 1.0942794827343076 -1.0327891281055086 -0.7712705660215884 3.605565954412391 0.30945080867805935 -1.1392426882521534 -1.88812291119682 -0.78288658049584 0.10263836460309492 -0.25586122874100425 -0.7389066000553992 0.6012968796980909 11.932334022486728 -2.1566096981552136 0.21418313436298803 -0.5678280579338356 -6.379361044166728 0.997394804336985 -15.944065643887527 -0.559334788423144 -5.555589279098609 2.1221471126524394 -15.938569296737455 70.01348216063906 -5.1160354276977 4.709623478656614 31.06078908138269 9.524208841847749 89.89105472408207 20.31661119364491 -0.4501565631338006 -3.794991802988857 4.4821552764772905 -0.11310906831571134 -1.6058870630430517 0.02441994061983168 -0.026271212673159405 -56.23884804791682 -0.04157831688348907 -0.046283992598009485 -56.2707385525046 -38.78493970943408 0.016876023175114968 -0.03690585936391139 0.018008971795230738 0.028119842454012955 0.03505217594254967 0.007943462610732007 -0.043408485810565806 -0.0202477011802958 -36.702464308424254 -0.03713830965951569 0.009745378556915565 0.018156787748942842 0.02068050719362906 -0.0452083203629331 0.023601951650532547 -0.015326953084905153 -0.049217872020040514 -19.760853856786067 0.014304056081905069 -0.009418074173844408 0.004717468108920373 -0.005900653755943212 0.036614971462904655 -0.046107269227875204 -0.047201669863772305 0.02201142646968878 24.061194775327383 0.0050516019631553265 0.008836783852080475 28.890328628255077 -0.027766475868014676 -0.018768937612221374 28.839385113834478 0.036040586083290735 -0.04441668805989315 5.342791115906411 1.5304110829542046 13.79012694038737 -67.39064614451199 17.325941107165068 -4.481687765460499 4.105746313622321 -5.280151615307264 -78.23784427547992 -13.04314607466999 -0.659848053406229 0.10195812259259912 -0.478002111269434 0.03393613682719111 -8.118057932359099 -0.031087873605098907 -0.008030178074731303 44.564317836618805 0.028759814924671293 0.022984382584121825 44.51843303016806 12.430174091896495 0.0362628961346736 0.037372854670162776 -0.03701268087887592 -0.041127974324317446 -0.0383937826019007 0.04859999586814613 0.008031865935671864 -0.030624282079631093 11.091232321352274 0.04209197309147352 -0.033359820159825776 0.0386998560137466 0.03434867177421221 -0.01112345648484907 -0.012559621281311863 -0.022918866635226187 -0.011778944601889054 4.790033552548656 -0.0034648905225582384 0.04253123135120508 -0.010978323163791033 0.0033073113467111106 0.038407180788523135 -0.035522983953187905 0.013160444131212947 0.03242145536519249 -5.6086054955490505 0.012347052348144205 -0.024974227548666714 -6.7016291360635325 0.030767732178803364 0.011430214171945527 -6.732305891556195 -0.0034834855484839485 -0.02404559231351404 -0.02050627659256479 -0.020810407983687516 0.014096406806476882 8.065085277345633 3.475965411361043 -19.219100653678844 0.02032716779554393 10.37445188091377 -0.013591772582394645 -5.603206357980337 -15.645101333759571 3.1726421405157024 0.003985681144907155 0.045999948661910935 0.049253917126727255 -0.04858419062974804 4.6596996900449605 -0.015674348662939666 12.49992618486986 -8.236749755303421 6.868987177102412 -0.004048591173425378 46.34248539625248 0.04451812948607051 -4.299495818280131 -14.75324770056255 -3.8833278786400434 0.03478613439358114 -0.01597255347008493 0.033407544223759966 -0.0014785125616359354 -10.740864705164066 -0.038335354847507 
-0.015022875950332385 -0.02388459206641986 0.01653032166906348 -0.01929478985279886 0.0004850501232486773 -0.010165734227654287 -1.8092457972662794 0.9660336093135077 -0.9758776481232324 -0.8346140785185772 3.5775352427160447 0.3326161557561074 -1.0984011136965628 -1.918904565727854 -0.857370795750545 0.06623090915202667 -0.23981714937044152 -0.788228454226437 0.4142163098661847 12.139012737200142 -1.7805532270228628 0.23880086309005588 -0.40959609363104216 -5.48457661488574 0.8195947872987167 -15.69462729255242 -0.4285887017213452 -5.467903513470253 2.018648535046843 -15.808834357576288 69.96763147744879 -4.364045890766589 4.3973911043898415 31.427368875262662 9.626388462614102 89.56297295698947 20.426019044445077 -0.3596485600137784 -3.6504686569958054 4.523763762491635 -0.101054673379409 -1.5709015935304422 0.0156743392491482 0.0033154988802627547 -56.219061918248045 -0.01837461907257414 0.04396224556985328 -56.2409740434789 -38.790394214486795 0.04548264180253393 -0.009298125058982806 0.01674710828676949 0.0022353135168869534 -0.024963965820356523 0.032395004866917855 0.025566740184597748 -0.005131832018676614 -36.73802922391814 0.038244077734565333 0.03869330881378624 0.02285731244444027 -0.01124003240070971 -0.04601521282406181 -0.04097252345338493 -0.046043722903318096 -0.017130890682501787 -19.710279773314717 -0.0073560347148387386 -0.010314122838168408 -0.008210638104065172 0.0074268055897458605 0.017571293424982763 0.0035416041840227587 -0.0334764715074838 -0.021971613393846456 24.074565616236317 0.043365796787976384 -0.03654750640277555 28.858796971065 -0.04643167458587036 0.001378584450056718 28.872522459994983 -0.04785700752551486 0.027062908032092717 5.818854043914707 1.5737412854743265 13.765810303984647 -67.21552437600839 15.481072977233389 -5.890879542206513 3.6090256036058723 -5.1815677637308575 -79.95843226952894 -11.671901026049941 -0.33343145213329867 -0.32279853758344373 -0.49997716756990274 0.08281590218665015 -8.138820640122226 -0.029497900058270046 -0.03644205278205633 44.607988495098844 -0.010415604638945012 0.03374498867164631 44.57190747175369 12.48533710352681 0.004495560296407274 0.002856403752116157 0.03305732176430734 -0.024781128249160136 -0.006120996687829011 0.009979618823440969 0.0021715528875804755 0.017361191135098056 11.147394334069494 -0.00586540564276646 -0.0160174067611735 -0.03109363315287864 0.033418196849325156 -0.028394863498941523 -0.004150259030380756 0.014296975645725844 -0.03624904275671519 4.8168681809715945 0.025933576391580455 0.013549747426295843 0.03247173163771941 -0.013473454400026678 -0.016358783560068844 0.012651226425002257 0.014548420109452644 0.04302802152051852 -5.634034163300042 -0.002226140516479536 -0.03982396883085659 -6.7682534978271 -0.026819436804664126 -0.03750591556298541 -6.745094870676358 0.04851636237770408 -0.04255723805915238 0.04886483065799621 -0.003103324574491232 0.005524803912106647 8.023615061944543 3.4764242730904664 -19.197924341167866 0.002432149876603243 10.42289916676472 -0.017356329367025528 -5.628270572671433 -15.699213004336487 3.1915393175346627 -0.014082035947946584 0.007259692519043671 -0.018051228348060628 -0.005256922190595649 4.734639522026814 -0.03779567980908833 12.441327244852078 -8.238675340421263 6.893439363557026 0.005138833542239536 46.35607593099958 0.03399888993021854 -4.276929254354573 -14.731754725115717 -3.8475425050123593 -0.015514025913387654 0.0010092311015373063 -0.0021727871382159997 0.010887376743553097 -10.70635366539814 0.03772780842991498 
0.009631253733466408 0.01226338460867505 0.04379434589253581 -0.038883263058994165 -0.04792777438861475 -0.007280040198893745 -1.978996985602858 0.7380335465155727 -0.9508123284059029 -0.8101062710873312 3.596096748566362 0.3679432445957401 -1.1171933998784407 -1.9863813391045448 -1.0238524085683045 0.001990417958688444 -0.2555305006305424 -0.7799884915083276 0.24252186506526296 12.297802461104869 -1.4056655005279886 0.21345129697637125 -0.2702389438935225 -4.586924382203945 0.6184790516197795 -15.406389497949347 -0.33379866407021125 -5.462757621198771 2.002683172991846 -15.710089351869966 69.75941512692987 -3.8551940945746264 4.322033878672024 31.35434332247593 9.335215872509824 89.80599386302436 20.567603882826326 -0.41068709207445075 -3.6956865839775555 4.564033941314405 -0.1713635851568821 -1.5685874348792204 -0.014350448035125196 0.007148949171467092 -56.186296333504444 0.014181134278036125 -0.04469215568343329 -56.22703050535777 -38.81416950701447 0.011229548929323322 0.047017464948652526 -0.011834473864728296 0.02313326816777041 0.002968665243720296 0.04270527798598659 0.034199115022957194 -0.0023267538236334375 -36.686565026635 0.017758030351821077 0.0020589895155959494 0.004859647095313939 -0.027779075979630134 0.006665084297948875 -0.026889170284708205 0.009668326920763798 0.014062674157829604 -19.757803152600836 -0.003008750099780064 0.02635516554487701 0.029015925583236866 -0.04332593553563966 -0.028879424718194244 -0.013149521101232683 0.035345354992790914 -0.03512437544923928 24.040474077821063 -0.008847266551022609 -0.02675714198019315 28.83282336319369 -0.0009933374381773446 0.0031306049161670974 28.880610688277148 -0.0019772064621384248 0.030256959102347873 6.353817637676183 1.6620608434310677 13.880483858497517 -66.94651500558001 13.919557998099451 -7.421611338538625 3.2273257574746705 -5.334363521482993 -82.61163498036932 -10.36474807073215 -0.3712915501083398 -0.33096436737837603 -0.4526895682224169 0.04194878116459786 -8.142045265064441 0.002461793679432668 0.006133971833828214 44.56096703307227 0.00016006389058290804 0.029883239226967784 44.55966878437926 12.505918361149975 0.016221737131385177 -0.033797353664944435 -0.04674097271489863 -0.02971734412227226 -0.04092492832669406 -0.03176914822016097 -0.011901078400673011 -0.005334411026724922 11.099523887483658 -0.044719606405137544 0.010898853830592544 -0.04366525660921407 0.025192577857480247 0.031796047612274655 0.03366432369911639 -0.04702077596004478 -0.022131485449791117 4.7693388702015955 0.031424097982434646 -0.02418048659178804 0.008519921889001286 0.04592421533480375 -0.014211727228506792 -0.003624169298171009 0.024121771710481837 -0.022956699183754762 -5.648820422383067 -0.022497881942103726 0.0035063720526898987 -6.756831757871335 -0.018280254470518502 0.012999963881459358 -6.731389886444882 0.02679550424639636 -0.01579065785810456 0.016018949873633097 -0.018336124933310795 -0.04337705879757506 7.99973618288871 3.4508478098843054 -19.192665598645032 0.011758275869054436 10.365754611949958 0.036208740184930435 -5.6040258846361235 -15.628430313593054 3.206367116801225 -0.014190994207207628 -0.004494772475119229 0.033953019223824266 -0.004976561213093395 4.672023036297296 0.03625751059156645 12.45458493291083 -8.211950100312722 6.877922176577758 -0.00492654175453281 46.37875720834187 0.048605261497923644 -4.299715806153847 -14.791323249106503 -3.819987933561165 -0.009394573427181049 0.022787488751818963 0.004420293340605366 0.0028288588498633378 -10.71366745376339 0.007981534736499108 
0.010637540749692836 0.03865431480473487 -0.03578261502694612 -0.025116414852508567 -0.004305998038275037 -0.008045547680380587 -2.067202916024105 0.5372128244892053 -0.9705210098170659 -0.863931122247356 3.5452245754032967 0.3730692238261189 -1.1575889014185519 -2.0892449980221626 -1.1467127498475536 -0.05381450886756692 -0.17570002473342772 -0.8150471719089524 0.07925390604440127 12.566159933191148 -1.0528676749392418 0.1392314301567695 -0.10076140683877985 -3.7196720608988656 0.5327012141496379 -15.064666339571788 -0.29464812016947045 -5.4767676376189 2.063377839722639 -15.60602670818387 69.33717422243316 -3.525215403932863 4.621036984996327 30.86270848765538 8.734322097660458 91.1377779880384 20.613887371632025 -0.37734166548662706 -4.012318146229928 4.483530597119139 -0.11785189212559664 -1.5850584850412046 -0.035763709774750845 0.04787326358707981 -56.24362720858225 0.03446652777271961 0.03844982692258153 -56.18719052032594 -38.767086836212236 0.03299986721283169 -0.02879647295262327 0.036215617254949165 -0.008433936203040532 -0.026731176397262996 0.006211126706990146 -9.199963507857248e-05 0.031221372161729884 -36.68330579047155 0.012803467183446826 -0.024774512236660325 -0.029836425479860998 0.005174009886625662 -0.020816352356712503 -0.006111459804187873 0.023675545729099662 -0.040071636449145395 -19.75177089495701 0.043180698031675395 -0.01952635554581736 0.0006573650723177626 0.049701261449111016 0.0026108600138929987 0.014678465762178508 0.01150052776244045 0.010200310369586336 24.022518639481227 0.016199514226500393 -0.030328307285138474 28.86115046712357 0.0294965186215841 0.008644975528327365 28.895730859768573 0.014453585481855177 0.029379682965986944 6.848436490092606 1.7197303579974594 13.847795095037045 -66.63222174913358 13.19135650072866 -8.886040472314667 3.945708943258351 -6.107784271627648 -86.6994964061011 -8.961306465880174 -0.6081734609694297 -0.4205757822789283 -0.5176329712365874 0.031327698269241915 -8.089988347007347 0.0014987800848209707 -0.0009189344335949678 44.593050479310655 0.005180577973250105 0.014752366414021511 44.58691461277609 12.43862661936036 0.01688987892388602 -0.04759593993113356 0.023842444794379802 0.001611735790229175 0.020210986048286313 0.004231360837203788 -0.008424658658871475 0.04231414066153604 11.112791884412292 -0.039478137530885526 -0.006513144053396189 -0.005071178428339956 0.015698323905397965 -0.03230511481785945 -0.04539361199389839 0.04902416879679565 0.03177351433538847 4.771243743049851 -0.022206230434473805 0.005965426313878602 -0.04607443542460058 0.00878665745266356 -0.012807046956179817 -0.01454535051085332 0.0040622676825459855 0.00787532349615187 -5.578664805964432 0.002831110419324241 0.015976875945497456 -6.6781768950766125 -0.04093203461027631 -0.001554293217391985 -6.749256745173623 0.036949350516381645 -0.01921313474954659 -0.016892643342343812 0.016415355776826984 0.021568920842020115 7.997143606634283 3.4957653484585887 -19.235749193252115 -0.005592228030003621 10.381005866606419 0.04801485354469372 -5.60670234113035 -15.652315540746132 3.234056554293531 -0.04203139825236631 0.04107218664498462 0.0120575001668732 -0.02417638826756905 4.745337564239608 0.010741183840525215 12.470580895133024 -8.19913940364602 6.889433375043248 0.004515533134462389 46.39551483518101 -0.0014352143554375969 -4.3294404623004 -14.795961066962509 -3.8711991890635655 -0.03780938929633111 0.029212734573358084 -0.002704836199869879 0.0035080026065357653 -10.71213552617072 0.023011738337733886 
